<svg width="283" height="72" viewBox="0 0 283 72" fill="none" xmlns="http://www.w3.org/2000/svg">
<path d="M1.07905 31V29.2292L3.98828 28.5335V11.3311L1.07905 10.6354V8.86458H17.8703V15.3471H16.0046L14.7398 11.2995H9.14267V18.6358L15.0244 18.0982V21.2288L9.14267 20.7545V28.5651H14.803L16.9533 24.1696H18.819L17.8703 31H1.07905ZM20.9024 27.0789C20.9024 25.2448 21.6507 23.8534 23.1475 22.9048C24.6654 21.935 27.1108 21.4501 30.4838 21.4501V20.5015C30.4838 19.869 30.4733 19.4158 30.4522 19.1417C30.4522 18.8466 30.41 18.4988 30.3257 18.0982C30.2414 17.6977 30.1149 17.4131 29.9463 17.2444C29.7987 17.0758 29.5668 16.9282 29.2506 16.8017C28.9343 16.6541 28.5443 16.5804 28.0806 16.5804L24.0646 20.0588C22.631 19.2366 21.9143 17.9612 21.9143 16.2325L22.8629 15.8214C23.2635 15.6528 24.0435 15.4314 25.2029 15.1574C26.3624 14.8622 27.4903 14.7147 28.5865 14.7147C33.119 14.7147 35.3852 16.5277 35.3852 20.1536V28.6283H37.8518V29.9881C37.7464 30.0935 37.5988 30.2305 37.4091 30.3992C37.2193 30.5678 36.8082 30.7892 36.1758 31.0632C35.5433 31.3373 34.8898 31.4743 34.2152 31.4743C32.613 31.4743 31.4219 30.9368 30.6419 29.8616C29.2295 30.9368 27.6905 31.4743 26.0251 31.4743C24.5705 31.4743 23.3478 31.1054 22.357 30.3676C21.3872 29.6297 20.9024 28.5335 20.9024 27.0789ZM25.9935 26.7943C25.9935 27.4056 26.1938 27.8905 26.5943 28.2489C27.0159 28.6073 27.5219 28.7865 28.1122 28.7865C29.0608 28.7865 29.8514 28.4386 30.4838 27.7429V23.4107C29.3033 23.4107 28.2597 23.7269 27.3532 24.3594C26.4467 24.9707 25.9935 25.7824 25.9935 26.7943ZM39.378 30.747V26.2251H41.1488L42.2872 29.3557C43.0462 29.3978 43.647 29.4189 44.0897 29.4189C46.5562 29.4189 47.7895 28.8813 47.7895 27.8062C47.7895 27.3635 47.5681 26.984 47.1254 26.6678C46.6827 26.3305 46.2611 26.067 45.8605 25.8772C45.46 25.6875 44.7011 25.3502 43.5837 24.8653C42.1291 24.2329 41.0645 23.5161 40.3899 22.715C39.7364 21.8929 39.4096 20.8388 39.4096 19.5528C39.4096 17.9717 40.0421 16.7701 41.307 15.9479C42.5929 15.1257 44.2689 14.7147 46.3349 14.7147C48.2111 14.7147 49.8238 14.9149 51.173 15.3155V19.6161H49.5287L48.5484 16.8333C47.916 16.7279 47.2835 16.6752 46.6511 16.6752C44.6273 16.6752 43.6154 17.1706 43.6154 18.1615C43.6154 18.4144 43.7102 18.678 43.9 18.952C44.0897 19.2261 44.427 19.5001 44.9119 19.7742C45.4178 20.0482 46.2084 20.4172 47.2835 20.881C49.2019 21.7453 50.4984 22.5885 51.173 23.4107C51.8476 24.2118 52.1849 25.2975 52.1849 26.6678C52.1849 28.2278 51.542 29.4189 50.256 30.2411C48.97 31.0632 47.2624 31.4743 45.1332 31.4743C43.1305 31.4743 41.2121 31.2319 39.378 30.747ZM53.1161 16.865V15.189H62.8873V16.865L60.8002 17.2444L64.8794 25.3713L67.8519 17.4658L65.4486 16.865V15.189H72.785V16.865L70.1603 17.5923L61.3378 40.455H60.7686C60.1361 40.455 59.5353 40.318 58.9661 40.0439C58.418 39.7698 58.028 39.4325 57.7961 39.032L62.3813 31.7273L55.4877 17.529L53.1161 16.865ZM71.2417 10.6354V8.86458H82.1829V10.6354L79.5899 11.173L84.3648 24.2645L88.697 11.3311L86.1989 10.6354V8.86458H94.1676V10.6354L91.2584 11.3311L84.3648 31.2214H81.2975L74.056 11.3311L71.2417 10.6354ZM92.4225 27.0789C92.4225 25.2448 93.1709 23.8534 94.6676 22.9048C96.1855 21.935 98.6309 21.4501 102.004 21.4501V20.5015C102.004 19.869 101.993 19.4158 101.972 19.1417C101.972 18.8466 101.93 18.4988 101.846 18.0982C101.762 17.6977 101.635 17.4131 101.466 17.2444C101.319 17.0758 101.087 16.9282 100.771 16.8017C100.454 16.6541 100.064 16.5804 99.6007 16.5804L95.5847 20.0588C94.1511 19.2366 93.4344 17.9612 93.4344 16.2325L94.383 15.8214C94.7836 15.6528 95.5636 15.4314 96.7231 15.1574C97.8825 14.8622 99.0104 14.7147 100.107 14.7147C104.639 14.7147 106.905 16.5277 106.905 20.1536V28.6283H109.372V29.9881C109.266 30.0935 109.119 30.2305 108.929 30.3992C108.739 30.5678 108.328 30.7892 107.696 31.0632C107.063 31.3373 106.41 31.4743 105.735 31.4743C104.133 31.4743 102.942 30.9368 102.162 29.8616C100.75 30.9368 99.2107 31.4743 97.5452 31.4743C96.0906 31.4743 94.8679 31.1054 93.8771 30.3676C92.9073 29.6297 92.4225 28.5335 92.4225 27.0789ZM97.5136 26.7943C97.5136 27.4056 97.7139 27.8905 98.1144 28.2489C98.5361 28.6073 99.042 28.7865 99.6323 28.7865C100.581 28.7865 101.372 28.4386 102.004 27.7429V23.4107C100.823 23.4107 99.7799 23.7269 98.8734 24.3594C97.9669 24.9707 97.5136 25.7824 97.5136 26.7943ZM110.519 31V29.324L113.207 28.6916V18.0666H110.519V16.3906L115.578 15.189H118.076V17.0863C119.657 15.5052 121.534 14.7147 123.705 14.7147C123.832 15.1152 123.895 15.5579 123.895 16.0428C123.895 17.0125 123.789 17.919 123.579 18.7623L119.594 18.0982C119.088 18.3301 118.582 18.6674 118.076 19.1101V28.6916L121.397 29.324V31H110.519ZM125.28 31V29.324L127.968 28.6916V18.0666H125.28V16.3906L130.339 15.189H132.837V28.6916L135.525 29.324V31H125.28ZM127.462 10.3192C127.462 9.49702 127.746 8.81188 128.315 8.26376C128.885 7.69457 129.58 7.40997 130.403 7.40997C131.246 7.40997 131.941 7.69457 132.49 8.26376C133.059 8.81188 133.343 9.49702 133.343 10.3192C133.343 11.1624 133.059 11.8687 132.49 12.4379C131.941 13.0071 131.246 13.2917 130.403 13.2917C129.58 13.2917 128.885 13.0071 128.315 12.4379C127.746 11.8687 127.462 11.1624 127.462 10.3192ZM136.953 27.0789C136.953 25.2448 137.701 23.8534 139.198 22.9048C140.716 21.935 143.161 21.4501 146.534 21.4501V20.5015C146.534 19.869 146.524 19.4158 146.503 19.1417C146.503 18.8466 146.46 18.4988 146.376 18.0982C146.292 17.6977 146.165 17.4131 145.997 17.2444C145.849 17.0758 145.617 16.9282 145.301 16.8017C144.985 16.6541 144.595 16.5804 144.131 16.5804L140.115 20.0588C138.681 19.2366 137.965 17.9612 137.965 16.2325L138.913 15.8214C139.314 15.6528 140.094 15.4314 141.253 15.1574C142.413 14.8622 143.541 14.7147 144.637 14.7147C149.169 14.7147 151.436 16.5277 151.436 20.1536V28.6283H153.902V29.9881C153.797 30.0935 153.649 30.2305 153.459 30.3992C153.27 30.5678 152.859 30.7892 152.226 31.0632C151.594 31.3373 150.94 31.4743 150.266 31.4743C148.663 31.4743 147.472 30.9368 146.692 29.8616C145.28 30.9368 143.741 31.4743 142.075 31.4743C140.621 31.4743 139.398 31.1054 138.407 30.3676C137.438 29.6297 136.953 28.5335 136.953 27.0789ZM142.044 26.7943C142.044 27.4056 142.244 27.8905 142.645 28.2489C143.066 28.6073 143.572 28.7865 144.163 28.7865C145.111 28.7865 145.902 28.4386 146.534 27.7429V23.4107C145.354 23.4107 144.31 23.7269 143.404 24.3594C142.497 24.9707 142.044 25.7824 142.044 26.7943ZM155.049 31V29.324L157.737 28.6916V18.0666H155.049V16.3906L160.108 15.189H162.607V16.7385C163.893 15.3893 165.484 14.7147 167.382 14.7147C168.204 14.7147 168.942 14.8411 169.595 15.0941C170.27 15.326 170.828 15.6633 171.271 16.106C171.735 16.5487 172.093 17.0758 172.346 17.6871C172.599 18.2985 172.726 18.9625 172.726 19.6793V28.6916L175.413 29.324V31H165.8V29.324L167.856 28.6916V20.5647C167.856 19.9112 167.814 19.3842 167.729 18.9836C167.666 18.5831 167.55 18.2774 167.382 18.0666C167.213 17.8347 166.981 17.6871 166.686 17.6239C166.412 17.5396 166.064 17.4974 165.642 17.4974C164.841 17.4974 163.829 17.9612 162.607 18.8888V28.6916L164.662 29.324V31H155.049ZM175.116 15.5685V8.86458H194.563V15.5685H192.634L191.338 11.2995H187.417V28.5335L190.326 29.2292V31H179.353V29.2292L182.262 28.5335V11.2995H178.309L177.013 15.5685H175.116ZM195.997 31V29.324L198.685 28.6916V18.0666H195.997V16.3906L201.056 15.189H203.555V17.0863C205.136 15.5052 207.012 14.7147 209.183 14.7147C209.31 15.1152 209.373 15.5579 209.373 16.0428C209.373 17.0125 209.268 17.919 209.057 18.7623L205.072 18.0982C204.567 18.3301 204.061 18.6674 203.555 19.1101V28.6916L206.875 29.324V31H195.997ZM210.758 31V29.324L213.446 28.6916V18.0666H210.758V16.3906L215.818 15.189H218.316V28.6916L221.004 29.324V31H210.758ZM212.94 10.3192C212.94 9.49702 213.225 8.81188 213.794 8.26376C214.363 7.69457 215.059 7.40997 215.881 7.40997C216.724 7.40997 217.42 7.69457 217.968 8.26376C218.537 8.81188 218.822 9.49702 218.822 10.3192C218.822 11.1624 218.537 11.8687 217.968 12.4379C217.42 13.0071 216.724 13.2917 215.881 13.2917C215.059 13.2917 214.363 13.0071 213.794 12.4379C213.225 11.8687 212.94 11.1624 212.94 10.3192ZM221.957 38.8106L224.645 38.1782V18.0666H221.957V16.3906L227.016 15.189H229.514V16.7068C230.8 15.3787 232.339 14.7147 234.131 14.7147C235.017 14.7147 235.849 14.8938 236.629 15.2522C237.43 15.5895 238.126 16.0955 238.716 16.7701C239.307 17.4236 239.77 18.2352 240.108 19.205C240.466 20.1747 240.645 21.271 240.645 22.4937C240.645 23.9272 240.392 25.2026 239.886 26.3199C239.401 27.4373 238.737 28.3754 237.894 29.1343C237.051 29.8932 236.06 30.473 234.922 30.8735C233.804 31.2741 232.613 31.4743 231.348 31.4743C230.526 31.4743 229.915 31.4111 229.514 31.2846V38.1782L232.835 38.8106V40.4866H221.957V38.8106ZM229.514 29.1027C229.999 29.3135 230.516 29.4189 231.064 29.4189C232.413 29.4189 233.509 28.8497 234.352 27.7113C235.196 26.5518 235.617 24.8548 235.617 22.6202C235.617 20.9126 235.322 19.6477 234.732 18.8255C234.142 18.0033 233.33 17.5923 232.297 17.5923C231.833 17.5923 231.327 17.6977 230.779 17.9085C230.252 18.1193 229.831 18.3828 229.514 18.699V29.1027ZM243.068 30.747V26.2251H244.839L245.978 29.3557C246.736 29.3978 247.337 29.4189 247.78 29.4189C250.247 29.4189 251.48 28.8813 251.48 27.8062C251.48 27.3635 251.258 26.984 250.816 26.6678C250.373 26.3305 249.951 26.067 249.551 25.8772C249.15 25.6875 248.391 25.3502 247.274 24.8653C245.819 24.2329 244.755 23.5161 244.08 22.715C243.427 21.8929 243.1 20.8388 243.1 19.5528C243.1 17.9717 243.732 16.7701 244.997 15.9479C246.283 15.1257 247.959 14.7147 250.025 14.7147C251.901 14.7147 253.514 14.9149 254.863 15.3155V19.6161H253.219L252.239 16.8333C251.606 16.7279 250.974 16.6752 250.341 16.6752C248.318 16.6752 247.306 17.1706 247.306 18.1615C247.306 18.4144 247.401 18.678 247.59 18.952C247.78 19.2261 248.117 19.5001 248.602 19.7742C249.108 20.0482 249.899 20.4172 250.974 20.881C252.892 21.7453 254.189 22.5885 254.863 23.4107C255.538 24.2118 255.875 25.2975 255.875 26.6678C255.875 28.2278 255.232 29.4189 253.946 30.2411C252.66 31.0632 250.953 31.4743 248.824 31.4743C246.821 31.4743 244.902 31.2319 243.068 30.747Z" fill="white"/>
<g clip-path="url(#clip0_6_1622)">
<path d="M38.8307 43.5057C48.3569 51.8109 104.443 60.5934 145.361 60.5339C189.568 60.5103 215.534 57.212 269.389 44.623C268.485 46.0566 267.447 47.2199 266.944 48.286C266.245 49.5009 265.536 50.7857 265.536 51.964C265.485 52.3133 266.965 52.8598 268.003 52.8749C269.04 52.8899 270.859 52.3096 271.26 51.9421C274.897 48.4247 278.185 44.9256 281.658 41.3476C282.696 40.1842 281.771 39.4008 278.853 39.2068C267.663 38.6827 256.482 38.0888 245.107 37.6437C242.518 37.5711 239.332 38.0149 235.838 38.1975C238.192 41.0551 244.532 40.3771 248.961 40.9081C253.554 41.4997 258.548 41.7239 264.539 42.2425C249.465 46.9123 234.431 50.1243 218.658 52.4738C160.867 61.1789 109.159 59.1685 62.6401 48.9847C56.5978 47.637 51.1207 45.9824 45.2634 44.5557C43.3932 44.3069 41.6977 44.049 38.8307 43.5057Z" fill="#DF6951"/>
</g>
<defs>
<clipPath id="clip0_6_1622">
<rect width="245.925" height="23.346" fill="white" transform="matrix(0.996064 -0.0886402 -0.0886402 -0.996064 37.9916 71.4595)"/>
</clipPath>
</defs>
</svg>
